<?xml version="1.0" standalone="no"?>
<!DOCTYPE svg PUBLIC "-//W3C//DTD SVG 20010904//EN"
 "http://www.w3.org/TR/2001/REC-SVG-20010904/DTD/svg10.dtd">
<svg version="1.0" xmlns="http://www.w3.org/2000/svg"
 width="400.000000pt" height="400.000000pt" viewBox="0 0 400.000000 400.000000"
 preserveAspectRatio="xMidYMid meet">
<metadata>
Created by potrace 1.14, written by Peter Selinger 2001-2017
</metadata>
<g transform="translate(0.000000,400.000000) scale(0.100000,-0.100000)"
fill="#000000" stroke="none">
<path d="M1400 3201 c-50 -16 -106 -50 -142 -88 -34 -36 -537 -894 -581 -992
-32 -69 -29 -180 4 -246 31 -60 498 -869 541 -938 17 -26 50 -61 74 -78 89
-61 73 -59 707 -59 l579 0 58 26 c31 14 75 44 98 67 37 39 552 917 588 1003
19 46 20 171 1 216 -31 73 -552 965 -585 999 -19 21 -57 50 -86 65 l-51 29
-590 2 c-324 1 -601 -2 -615 -6z m649 -405 c49 -26 51 -40 51 -424 0 -393 1
-385 -62 -418 -60 -31 -127 4 -148 77 -13 45 -13 654 0 699 19 69 93 99 159
66z m414 -174 c99 -75 190 -212 239 -357 20 -60 23 -90 23 -215 0 -153 -14
-219 -67 -324 -96 -190 -282 -339 -488 -393 -88 -23 -273 -23 -358 1 -302 82
-514 328 -553 639 -29 234 80 503 263 648 73 58 140 53 174 -12 24 -47 10 -82
-52 -137 -68 -57 -137 -157 -166 -237 -26 -74 -35 -217 -18 -299 40 -194 210
-368 405 -416 77 -18 209 -14 285 9 228 71 390 286 390 518 0 150 -55 280
-167 392 -41 41 -78 82 -84 92 -22 43 -2 100 45 123 40 21 69 13 129 -32z"/>
</g>
</svg>
