<?xml version="1.0" standalone="no"?>
<!DOCTYPE svg PUBLIC "-//W3C//DTD SVG 20010904//EN"
 "http://www.w3.org/TR/2001/REC-SVG-20010904/DTD/svg10.dtd">
<svg version="1.0" xmlns="http://www.w3.org/2000/svg"
 width="500.000000pt" height="500.000000pt" viewBox="0 0 500.000000 500.000000"
 preserveAspectRatio="xMidYMid meet">
<metadata>
Created by potrace 1.14, written by Peter Selinger 2001-2017
</metadata>
<g transform="translate(0.000000,500.000000) scale(0.100000,-0.100000)"
fill="#000000" stroke="none">
<path d="M3226 4361 c-3 -4 6 -7 19 -7 14 0 22 2 19 5 -8 8 -34 10 -38 2z"/>
<path d="M3315 4360 c-3 -5 -1 -10 4 -10 6 0 11 5 11 10 0 6 -2 10 -4 10 -3 0
-8 -4 -11 -10z"/>
<path d="M3209 4323 c-12 -15 -12 -16 1 -8 13 8 13 7 1 -8 -8 -10 -16 -15 -19
-12 -3 3 -14 -3 -25 -12 -11 -10 -17 -12 -13 -5 4 6 2 12 -4 12 -6 0 -8 5 -5
10 3 6 2 10 -3 10 -6 0 -13 -7 -16 -16 -9 -24 -7 -31 4 -14 5 8 10 10 10 4 0
-15 -25 -36 -34 -27 -3 4 -15 7 -26 8 -15 1 -17 -2 -9 -11 12 -14 1 -23 -23
-19 -16 3 -23 -7 -19 -28 1 -5 -3 -6 -8 -3 -5 4 -8 16 -6 27 4 20 3 20 -13 6
-9 -8 -24 -13 -33 -12 -12 2 -15 -3 -11 -18 4 -16 7 -17 11 -6 8 20 31 22 31
3 0 -8 -4 -13 -9 -9 -6 3 -14 -2 -19 -11 -8 -14 -13 -14 -33 -3 -23 12 -23 11
-9 -6 14 -17 14 -18 -7 -6 -15 7 -20 17 -17 29 5 14 4 14 -4 2 -6 -8 -8 -19
-4 -24 10 -17 9 -46 -1 -39 -5 3 -18 -5 -29 -18 -10 -13 -16 -17 -13 -9 3 9
-2 24 -11 35 -8 11 -13 15 -10 9 7 -14 -18 -37 -29 -26 -4 4 -3 -3 3 -14 9
-17 8 -24 -2 -33 -10 -9 -15 -8 -19 3 -4 11 -1 13 10 9 12 -5 12 -2 -3 15 -22
26 -25 27 -18 7 5 -11 2 -14 -12 -9 -17 6 -17 5 1 -10 20 -17 20 -17 -3 -13
-19 5 -21 3 -11 -9 6 -7 16 -11 23 -7 6 3 7 2 3 -3 -5 -5 -13 -10 -18 -10 -5
-1 -14 -2 -20 -3 -5 0 -7 -7 -3 -13 5 -8 1 -8 -10 1 -15 13 -19 13 -27 0 -5
-8 -9 -18 -9 -22 0 -5 -4 -5 -10 -2 -5 3 -10 1 -10 -4 0 -6 -3 -10 -7 -10 -5
1 -15 1 -23 0 -13 -1 -13 -3 0 -12 13 -9 12 -10 -2 -5 -11 3 -22 -2 -28 -15
-6 -11 -15 -17 -20 -14 -5 3 -11 1 -15 -4 -3 -5 -15 -8 -26 -6 -16 3 -19 0
-13 -17 5 -18 4 -19 -9 -7 -11 10 -12 19 -5 34 9 20 9 20 -6 1 -13 -16 -13
-22 -3 -34 10 -13 9 -14 -13 -2 -23 12 -24 12 -11 -3 20 -25 5 -21 -20 6 l-21
22 11 -23 c10 -18 10 -27 0 -38 -14 -17 -29 -18 -29 -3 0 5 4 8 9 4 5 -3 13 0
17 6 5 8 3 9 -6 4 -10 -6 -12 -4 -7 8 11 28 -1 19 -18 -13 -9 -17 -13 -35 -10
-40 3 -6 -1 -7 -9 -4 -9 3 -16 1 -16 -6 0 -6 -5 -8 -10 -5 -6 4 -1 15 12 26
23 20 23 20 1 10 -24 -12 -39 0 -27 22 5 9 4 9 -6 0 -10 -9 -10 -15 -2 -26 13
-16 6 -28 -12 -21 -7 3 -19 -3 -27 -12 -8 -10 -9 -15 -3 -11 7 4 14 0 17 -8 5
-11 1 -12 -18 -5 -25 9 -30 4 -26 -27 2 -14 -39 -14 -58 1 -12 9 -12 7 -2 -12
9 -18 9 -22 -1 -20 -7 2 -12 -3 -10 -11 3 -12 0 -12 -12 -1 -9 7 -17 10 -17 6
-1 -3 -2 -10 -3 -15 0 -5 -5 -13 -10 -18 -5 -4 -7 -3 -3 2 3 6 -3 16 -13 23
-18 11 -19 10 -10 -13 7 -19 6 -23 -5 -18 -8 3 -15 13 -16 22 0 10 -2 12 -6 3
-3 -7 1 -20 9 -29 12 -15 11 -15 -10 -4 -12 7 -20 17 -16 23 4 7 3 8 -5 4 -6
-4 -9 -12 -6 -17 4 -5 -1 -12 -9 -15 -9 -3 -16 -13 -16 -21 0 -13 -2 -13 -17
-2 -15 13 -15 12 -5 -8 8 -14 9 -24 2 -28 -9 -6 -14 1 -11 17 0 3 -7 5 -17 3
-9 -2 -20 -4 -23 -4 -4 -1 -10 -8 -13 -17 -5 -14 -4 -15 9 -4 9 8 15 8 15 2 0
-6 -9 -14 -20 -17 -11 -4 -17 -11 -14 -17 4 -7 2 -8 -5 -4 -6 4 -9 12 -6 17 4
5 1 9 -4 9 -6 0 -11 -10 -11 -22 0 -13 -4 -18 -8 -13 -4 6 -17 16 -30 23 -21
12 -22 11 -10 -7 7 -11 16 -17 20 -15 4 3 8 0 8 -5 0 -6 -7 -11 -15 -11 -8 0
-15 -6 -15 -12 0 -9 -4 -8 -10 2 -9 14 -14 7 -11 -13 1 -5 -2 -6 -6 -4 -5 3
-17 -1 -28 -9 -12 -9 -14 -14 -5 -14 7 0 11 -3 7 -6 -3 -3 -11 -3 -17 1 -8 5
-3 15 16 31 16 13 23 23 17 24 -7 0 -13 -4 -13 -10 0 -5 -6 -10 -14 -10 -16 0
-29 -27 -19 -42 3 -7 1 -8 -5 -4 -7 4 -12 2 -12 -5 0 -7 -2 -10 -5 -7 -3 3 -1
17 5 32 6 18 6 25 0 21 -6 -3 -10 -13 -10 -21 0 -8 -4 -13 -9 -9 -5 3 -13 0
-17 -6 -4 -8 -3 -9 4 -5 7 4 12 2 12 -3 0 -6 -12 -11 -27 -11 -25 0 -26 -1 -8
-13 17 -13 17 -14 -6 -13 -13 1 -24 -4 -24 -11 0 -7 -6 -18 -14 -25 -12 -11
-13 -11 -6 1 6 11 4 13 -9 8 -10 -4 -20 -7 -22 -7 -2 0 -4 -5 -4 -11 0 -5 4
-8 8 -5 4 2 14 0 22 -6 12 -8 12 -9 -2 -4 -11 3 -23 -3 -33 -17 -8 -12 -15
-17 -15 -13 0 5 -10 -2 -22 -16 -31 -33 -53 -31 -52 5 1 15 -2 25 -5 21 -6 -5
-7 -9 -10 -35 0 -5 -5 -8 -10 -4 -5 3 -12 1 -15 -4 -4 -5 -1 -13 5 -17 7 -4 9
-3 6 3 -3 5 0 10 7 10 29 0 10 -22 -21 -23 -28 -1 -31 1 -20 15 10 14 10 14
-3 5 -8 -6 -23 -10 -33 -9 -9 2 -15 -1 -11 -6 3 -5 11 -7 17 -3 7 3 -1 -5 -18
-19 -23 -19 -33 -23 -43 -14 -16 13 -53 17 -46 5 3 -4 0 -9 -5 -9 -6 -1 -17
-2 -23 -3 -7 -1 -19 2 -26 7 -7 6 -15 7 -19 3 -3 -3 -2 -6 3 -6 5 0 10 -12 12
-27 l1 -28 -13 24 c-8 15 -16 20 -20 12 -4 -6 -2 -11 4 -11 6 0 8 -5 4 -11 -4
-8 -11 -4 -19 11 -10 19 -13 20 -18 6 -4 -9 -13 -13 -22 -10 -8 3 -15 1 -15
-6 0 -6 -5 -8 -12 -4 -7 4 -8 3 -4 -5 6 -9 11 -9 22 0 8 6 14 8 14 4 0 -4 6
-2 13 4 10 8 14 7 14 -4 0 -8 -3 -13 -5 -10 -3 3 -11 0 -19 -6 -7 -6 -13 -8
-13 -4 0 4 -7 2 -15 -5 -12 -10 -16 -9 -21 4 -3 8 -13 14 -22 12 -32 -6 -75
-27 -69 -33 4 -3 17 2 31 10 23 16 25 16 23 -2 -1 -13 -7 -17 -21 -13 -14 4
-17 2 -11 -8 9 -15 -9 -6 -39 19 -18 15 -18 15 -8 -6 9 -17 9 -22 -3 -26 -8
-4 -12 -1 -9 6 3 9 -7 13 -30 13 -19 0 -33 -4 -30 -8 2 -4 12 -5 22 -3 12 2
18 -4 19 -18 2 -20 1 -21 -8 -4 -10 18 -11 18 -25 0 -13 -16 -13 -16 -8 0 3 9
1 17 -5 17 -6 0 -11 -7 -11 -15 0 -9 -6 -12 -15 -9 -8 4 -15 12 -15 19 0 8 -3
16 -7 18 -5 3 -8 -5 -8 -18 0 -13 3 -21 7 -19 4 2 10 -1 14 -8 4 -7 4 -10 -1
-6 -4 4 -14 3 -22 -3 -7 -6 -13 -8 -13 -3 0 5 -4 3 -9 -4 -7 -11 -9 -11 -14 1
-4 11 -1 15 11 12 12 -2 18 3 18 17 0 16 -2 17 -11 5 -5 -7 -20 -13 -32 -12
-14 1 -19 -3 -16 -12 3 -7 9 -10 14 -7 5 3 9 2 9 -3 0 -4 -11 -13 -25 -20 -14
-6 -23 -8 -21 -5 2 4 -2 13 -10 20 -8 7 -14 8 -14 3 0 -6 -8 -8 -17 -5 -11 4
-14 3 -7 -3 6 -4 11 -16 11 -25 0 -13 -4 -15 -13 -7 -8 7 -14 7 -19 -1 -3 -6
-10 -8 -15 -5 -5 3 -13 -3 -19 -12 -14 -23 -14 -7 -1 18 6 10 7 19 2 19 -5 0
-14 -12 -20 -26 -7 -14 -16 -23 -21 -19 -5 3 -13 0 -16 -5 -5 -8 -14 -5 -27 7
-15 13 -22 15 -25 5 -3 -6 -10 -9 -15 -6 -7 4 -8 2 -4 -5 6 -9 11 -9 22 0 11
9 14 8 14 -5 0 -10 -4 -15 -9 -11 -6 3 -15 -3 -21 -12 -8 -13 -10 -14 -7 -2 3
9 -4 21 -15 28 -11 7 -17 8 -14 2 10 -15 -13 -24 -29 -11 -10 8 -15 8 -21 -1
-4 -7 -3 -9 3 -6 6 4 13 1 16 -7 6 -15 -12 -26 -48 -33 -16 -2 -17 -1 -5 6 8
5 17 8 21 5 4 -2 11 1 15 7 5 9 -1 10 -20 5 -18 -4 -34 -2 -44 6 -13 11 -14
10 -4 -8 7 -13 7 -25 1 -35 -8 -12 -13 -10 -31 11 -12 14 -19 18 -15 9 8 -24
-12 -40 -34 -29 -20 11 -35 -3 -23 -22 4 -7 3 -8 -4 -4 -7 4 -12 1 -12 -6 0
-8 -5 -6 -11 5 -14 23 -51 5 -42 -21 7 -16 6 -16 -11 0 -13 14 -22 16 -37 8
-10 -6 -19 -13 -19 -15 0 -8 25 -1 33 10 5 6 7 4 4 -5 -2 -8 -9 -15 -16 -15
-7 0 -18 -8 -25 -17 -7 -10 -18 -18 -25 -18 -6 0 -10 -5 -9 -11 2 -6 -5 -13
-15 -14 -9 -2 -15 1 -11 6 3 5 10 7 15 3 5 -3 9 -2 8 3 -3 19 2 34 10 29 5 -3
14 0 20 8 9 10 8 15 -3 19 -10 4 -13 1 -9 -9 3 -8 2 -14 -3 -13 -21 4 -34 -2
-32 -13 2 -7 -2 -12 -8 -11 -5 1 -10 -9 -10 -22 0 -17 5 -22 19 -19 15 3 17 1
7 -11 -8 -10 -17 -12 -29 -5 -13 6 -18 5 -18 -5 0 -8 4 -12 9 -9 4 3 8 0 8 -6
0 -6 6 -8 13 -4 9 5 9 4 1 -5 -9 -10 -17 -10 -33 -2 -32 18 -25 6 12 -19 17
-12 25 -20 15 -17 -26 9 -29 -4 -5 -25 19 -17 20 -18 2 -10 -15 7 -24 6 -34
-5 -12 -13 -11 -14 7 -9 12 4 23 2 28 -5 4 -7 3 -9 -4 -5 -6 3 -13 2 -17 -4
-6 -9 8 -14 28 -11 5 1 6 -3 2 -9 -3 -5 -18 -8 -33 -5 -24 5 -24 4 -6 -4 12
-5 25 -15 30 -22 4 -7 3 -10 -4 -5 -6 3 -13 2 -17 -4 -3 -5 -2 -10 3 -10 16 0
21 -39 6 -51 -8 -6 -14 -16 -14 -22 0 -5 10 -2 22 9 l22 19 -22 -32 c-28 -40
-28 -51 0 -27 13 10 18 12 11 4 -6 -8 -14 -30 -18 -48 -3 -18 -11 -30 -16 -27
-5 4 -6 -1 -3 -9 6 -15 -6 -21 -31 -16 -5 1 -6 -2 -2 -6 15 -15 36 -12 42 5 3
10 13 18 21 18 14 0 14 -2 -2 -14 -10 -7 -14 -13 -10 -13 5 0 3 -7 -4 -15 -10
-12 -8 -14 9 -10 12 2 19 0 16 -6 -4 -5 -11 -6 -17 -3 -7 5 -9 1 -5 -9 4 -10
-1 -18 -13 -22 -11 -3 -19 -12 -17 -18 1 -7 -4 -11 -11 -9 -8 1 -11 -2 -7 -8
5 -8 12 -7 23 2 13 11 15 10 9 -4 -3 -10 -2 -20 4 -23 5 -4 9 -3 8 2 -4 21 2
34 12 27 8 -4 7 -9 -2 -15 -8 -5 -10 -9 -5 -9 5 0 3 -7 -4 -15 -10 -12 -16
-13 -29 -3 -14 11 -14 11 -4 -3 7 -9 10 -19 6 -22 -3 -4 -3 -7 1 -7 4 0 14 7
22 15 9 8 21 15 27 15 7 0 4 -5 -6 -11 -18 -10 -18 -12 0 -32 10 -12 14 -19 9
-15 -4 4 -20 -4 -34 -17 -14 -13 -30 -21 -36 -18 -6 3 -7 2 -3 -2 10 -11 39
-16 32 -5 -6 9 25 23 33 15 3 -3 0 -5 -6 -5 -7 0 -11 -3 -11 -7 1 -5 0 -10 -1
-13 -6 -15 -6 -48 1 -45 4 3 13 -3 20 -12 8 -10 9 -14 2 -10 -6 4 -14 3 -17
-2 -4 -5 -2 -12 3 -16 7 -4 7 -15 1 -31 -13 -34 -13 -34 8 -27 16 7 16 6 0
-11 -10 -9 -18 -24 -18 -32 0 -9 -5 -12 -12 -8 -7 5 -8 3 -3 -6 4 -7 2 -16 -6
-22 -11 -8 -10 -9 4 -4 9 3 17 1 17 -5 0 -6 5 -7 12 -3 7 4 8 3 4 -5 -4 -6 -2
-20 6 -29 12 -15 11 -16 -4 -4 -14 11 -18 10 -29 -10 -11 -20 -10 -22 3 -10
13 10 17 10 22 -3 4 -11 2 -14 -6 -9 -8 5 -9 2 -5 -9 3 -9 2 -19 -4 -22 -5 -4
-7 -11 -3 -16 3 -6 12 -3 21 8 13 16 13 16 3 -5 -9 -18 -8 -27 2 -40 11 -15
11 -15 -3 -5 -16 13 -29 8 -29 -9 0 -5 4 -7 9 -4 5 3 12 -1 15 -10 3 -9 2 -12
-5 -9 -6 4 -10 1 -8 -6 4 -31 -2 -49 -16 -49 -8 0 -15 -4 -15 -10 0 -16 9 -12
37 17 22 24 24 25 14 5 -7 -12 -9 -27 -6 -32 3 -5 0 -7 -8 -4 -8 3 -14 -2 -14
-11 0 -9 6 -14 14 -11 9 4 11 1 7 -5 -4 -6 0 -15 7 -21 11 -7 9 -8 -6 -6 -16
2 -19 -2 -18 -20 2 -13 -1 -21 -6 -18 -5 3 -14 -1 -21 -9 -10 -12 -8 -13 9
-10 12 2 21 -1 21 -6 0 -6 4 -8 9 -4 5 3 13 0 17 -6 5 -8 3 -9 -5 -5 -8 5 -11
3 -9 -7 2 -9 0 -16 -4 -16 -27 -3 -30 0 -17 17 13 16 12 16 -5 2 -17 -14 -17
-15 4 -32 12 -10 27 -15 34 -11 8 4 8 3 0 -6 -9 -10 -17 -10 -33 -2 -14 8 -21
8 -21 1 0 -5 6 -10 14 -10 14 0 16 -23 4 -36 -4 -3 -4 -13 -1 -22 5 -11 3 -13
-7 -7 -9 5 -11 4 -6 -4 4 -6 12 -9 17 -6 5 4 17 1 26 -5 15 -10 15 -11 1 -6
-26 8 -29 -5 -5 -26 20 -17 20 -18 2 -10 -11 5 -26 7 -32 5 -16 -6 -17 -24 -2
-20 6 1 13 -6 14 -16 2 -10 11 -27 21 -38 9 -10 13 -19 9 -19 -5 0 0 -7 11
-16 19 -15 18 -15 -3 -9 -12 3 -24 2 -27 -3 -7 -11 32 -48 41 -39 3 4 1 7 -6
7 -7 0 -9 5 -5 11 4 8 9 7 15 -2 4 -8 3 -19 -3 -26 -8 -10 -6 -13 6 -13 9 0
16 8 17 18 0 12 3 11 10 -7 5 -14 15 -21 23 -18 10 4 13 0 11 -14 -2 -12 2
-19 11 -19 10 0 12 5 8 13 -6 9 -4 9 8 -1 11 -9 18 -9 21 -2 3 6 5 6 3 -1 -1
-7 -10 -13 -20 -15 -10 -1 -21 -6 -24 -10 -4 -4 1 -4 10 -1 11 4 22 0 28 -11
11 -15 11 -15 6 2 -5 15 -2 17 18 12 14 -3 28 -1 31 4 4 6 11 8 16 5 5 -4 12
1 15 9 3 9 10 14 14 11 5 -3 14 3 20 12 11 17 11 17 6 0 -4 -12 -2 -17 6 -14
7 2 12 11 10 18 -3 11 -1 11 9 2 13 -13 42 -6 33 8 -3 5 3 6 12 2 13 -5 15 -3
9 8 -5 8 3 4 17 -9 17 -15 28 -20 33 -13 3 6 10 9 15 6 5 -3 11 -1 15 5 4 7
13 7 26 -1 19 -10 19 -9 9 10 -6 12 -13 21 -16 21 -3 0 -2 -6 2 -12 4 -7 4
-10 -1 -6 -4 4 -14 3 -22 -3 -7 -6 -13 -8 -13 -4 0 4 -6 2 -14 -4 -10 -9 -15
-8 -19 2 -4 10 2 14 16 12 12 0 30 6 41 14 10 9 21 16 25 16 3 0 5 4 3 8 -1 4
6 3 16 -2 13 -7 23 -6 32 2 12 10 12 9 3 -3 -10 -13 -5 -15 28 -15 33 0 37 2
23 12 -13 9 -13 15 -4 30 10 16 11 16 6 0 -4 -13 0 -17 19 -17 14 0 25 5 25
11 0 5 -5 7 -12 3 -7 -4 -8 -3 -4 5 4 6 11 9 16 6 5 -3 12 0 15 6 4 5 13 8 20
5 7 -2 22 2 34 10 11 8 21 12 21 8 0 -3 11 1 24 9 18 12 26 13 35 4 19 -19 67
-15 68 6 2 16 0 16 -20 2 -27 -19 -34 -19 -34 -1 0 8 8 11 20 8 13 -3 18 -1
13 6 -4 7 1 9 15 7 13 -3 29 1 37 7 18 15 52 21 52 9 0 -6 -9 -8 -20 -6 -11 2
-23 -1 -26 -7 -5 -7 0 -9 14 -6 13 4 22 1 22 -5 0 -8 4 -7 9 2 5 8 14 10 22 5
12 -6 12 -5 0 9 -10 13 -11 17 -1 17 7 0 19 -8 26 -17 13 -17 14 -17 7 1 -5
14 -3 17 7 11 9 -5 11 -4 6 4 -4 6 -11 9 -15 7 -4 -3 -8 2 -8 10 0 10 4 11 11
4 12 -12 29 -13 22 -1 -3 5 2 15 11 22 10 8 14 9 10 2 -10 -17 9 -25 22 -10 6
9 23 12 43 9 31 -5 32 -4 18 14 -14 17 -13 18 1 7 9 -7 19 -9 23 -5 4 4 17 7
29 7 13 1 21 6 19 14 -1 7 2 10 8 6 6 -3 7 -11 4 -17 -5 -7 -2 -8 6 -3 10 6
12 4 6 -10 -5 -15 -4 -16 9 -5 17 14 21 35 5 25 -5 -3 -10 -2 -10 4 0 14 23
19 43 9 19 -10 37 -3 37 14 0 7 -5 6 -14 -1 -10 -8 -16 -9 -21 -1 -4 6 -3 10
2 9 4 -1 11 0 16 1 22 7 33 4 44 -15 9 -14 12 -16 13 -5 0 13 1 13 11 0 9 -13
10 -13 6 0 -2 8 -9 14 -14 13 -5 -1 -10 4 -10 12 0 14 27 9 40 -9 5 -6 6 2 3
19 -4 17 -3 26 1 20 9 -11 25 -16 66 -20 22 -2 25 0 16 11 -13 16 -23 19 -15
5 4 -5 -2 -8 -11 -7 -9 2 -19 9 -21 17 -3 12 -2 12 6 0 7 -9 12 -10 16 -2 5 8
13 8 27 1 18 -10 29 3 12 13 -5 2 -3 2 4 1 7 -2 15 1 18 6 3 5 12 7 20 3 11
-4 14 0 9 13 -5 16 -4 16 5 4 9 -12 4 -21 -21 -44 -26 -22 -28 -25 -8 -15 14
7 29 12 33 11 5 -1 6 1 3 6 -2 4 4 13 15 20 20 13 26 3 9 -14 -7 -7 -6 -11 4
-11 8 0 13 4 10 9 -3 4 -1 8 5 8 6 0 8 8 5 18 -4 10 -2 13 3 7 4 -6 22 -10 40
-10 17 1 31 -4 30 -9 -1 -6 4 -10 11 -8 8 1 11 -2 7 -8 -5 -8 -11 -7 -21 1
-10 8 -14 8 -14 0 0 -11 4 -13 57 -14 17 -1 29 -5 27 -9 -3 -4 -1 -8 4 -8 5 0
15 -11 22 -25 17 -31 26 -25 10 7 -9 19 -9 20 2 7 7 -9 21 -15 30 -13 14 2 15
-2 7 -23 -5 -14 -7 -28 -4 -31 3 -3 5 0 5 7 0 7 5 9 12 5 6 -4 8 -3 4 4 -3 6
-1 14 5 18 8 4 9 3 5 -4 -6 -11 6 -16 27 -13 11 2 9 -13 -4 -26 -8 -8 -3 -11
17 -10 16 1 32 6 35 10 3 5 9 2 12 -7 3 -8 1 -18 -5 -22 -7 -5 -8 -2 -3 7 5 8
4 10 0 6 -5 -4 -10 -14 -11 -22 -2 -11 2 -12 18 -2 16 9 22 9 25 -1 3 -6 9
-10 14 -6 5 3 9 0 9 -5 0 -6 -4 -11 -10 -11 -5 0 -10 -5 -10 -11 0 -8 4 -8 14
0 11 9 15 9 20 -1 3 -7 4 -2 1 12 -3 14 -2 19 1 12 3 -6 9 -10 13 -7 5 2 8 -8
7 -23 -1 -22 3 -27 24 -27 14 -1 24 -6 22 -13 -1 -7 2 -12 8 -12 16 0 12 15
-8 33 -14 13 -21 14 -30 5 -9 -9 -12 -9 -12 0 0 23 31 25 46 3 9 -12 19 -19
24 -16 10 6 8 -15 -3 -32 -4 -7 -1 -10 10 -9 12 2 17 11 16 27 -1 15 0 17 3 6
3 -9 10 -14 16 -11 5 4 5 -4 -2 -17 -10 -20 -10 -22 1 -11 19 18 34 15 18 -5
-13 -15 -12 -15 9 -4 12 6 22 8 22 3 0 -5 -10 -14 -22 -20 -13 -6 -17 -11 -11
-11 7 -1 22 8 33 19 24 24 26 13 3 -20 l-16 -25 26 24 c15 14 27 19 27 13 0
-7 3 -11 8 -11 19 3 33 -2 27 -11 -3 -5 5 -21 19 -35 21 -21 29 -24 46 -15 12
7 20 7 20 1 0 -5 9 -8 20 -6 11 2 19 -1 17 -7 -1 -6 6 -12 16 -13 22 -4 36
-15 19 -15 -7 0 -12 -7 -12 -16 0 -9 -5 -12 -12 -8 -7 5 -8 3 -3 -6 6 -10 10
-10 19 2 9 12 16 12 39 3 15 -6 24 -15 20 -19 -5 -5 3 -5 17 -2 19 6 21 5 10
-3 -13 -9 -13 -11 3 -11 19 0 23 -15 7 -25 -5 -3 -10 -1 -10 6 0 7 -3 10 -6 6
-12 -12 7 -28 20 -18 16 14 26 4 19 -17 -4 -14 -3 -15 5 -2 8 10 7 19 -1 29
-10 12 -9 13 3 6 8 -6 18 -10 22 -10 3 0 10 -4 15 -9 5 -5 2 -6 -6 -1 -10 6
-12 4 -6 -5 6 -10 11 -9 21 5 12 16 13 15 9 -14 -2 -21 0 -29 7 -25 7 5 9 2 6
-8 -4 -9 0 -15 8 -15 12 0 12 4 -1 23 -9 14 -11 25 -5 29 10 6 11 5 14 -17 0
-6 7 -13 15 -16 9 -3 11 0 5 9 -7 12 -5 12 9 1 9 -8 21 -11 27 -7 7 4 7 -1 -1
-13 -7 -12 -17 -18 -21 -16 -5 3 -5 10 -2 16 4 7 2 8 -5 4 -9 -6 -9 -11 0 -22
6 -7 15 -12 19 -9 5 3 11 1 15 -4 3 -6 12 -8 20 -5 8 4 12 11 8 17 -3 6 -1 7
5 3 16 -10 15 -39 0 -30 -7 4 -9 3 -5 -1 10 -12 39 -16 32 -5 -3 5 0 12 6 16
8 4 9 3 5 -4 -4 -7 -2 -12 5 -12 8 0 8 -4 -1 -15 -7 -9 -10 -18 -6 -22 3 -3 6
-1 6 5 0 7 7 12 16 12 8 0 12 4 9 10 -4 6 1 7 11 3 11 -4 13 -8 6 -11 -17 -5
-15 -19 3 -19 8 0 15 5 15 11 0 6 5 3 11 -7 6 -9 15 -14 21 -11 7 4 8 2 4 -5
-4 -6 -10 -9 -14 -7 -4 2 -7 -6 -7 -19 0 -13 3 -21 8 -18 4 2 7 11 7 19 0 8 5
14 11 14 7 0 9 -9 6 -21 -4 -17 -3 -19 6 -10 14 14 47 15 47 1 0 -5 3 -9 8 -9
4 1 10 0 15 -1 4 -1 12 -3 17 -4 6 0 10 -4 10 -8 0 -5 0 -11 0 -14 0 -4 -6 -1
-14 5 -11 9 -16 9 -22 0 -4 -7 -3 -9 3 -6 5 3 16 -3 23 -14 8 -10 18 -19 23
-19 5 0 4 6 -2 14 -10 12 -8 14 13 12 14 -1 29 -6 34 -11 4 -4 2 -5 -5 -1 -6
3 -15 2 -18 -4 -4 -7 7 -10 34 -8 43 2 87 -25 66 -40 -5 -4 -11 -14 -13 -22
-2 -11 2 -10 12 4 9 10 17 24 19 30 2 6 8 8 12 4 4 -4 2 -16 -6 -25 -13 -17
-13 -17 5 -3 20 16 21 16 46 -3 8 -6 12 -8 8 -3 -4 5 -1 15 7 22 7 8 15 19 18
26 2 7 8 9 13 5 5 -4 4 -11 -1 -15 -6 -4 -11 -14 -13 -22 -2 -13 0 -12 10 1 7
9 21 15 30 13 11 -1 15 3 11 13 -5 12 -7 12 -14 1 -5 -8 -9 -9 -9 -2 0 6 7 17
15 24 15 12 16 11 19 -10 0 -5 4 -10 9 -10 4 0 12 0 17 0 6 0 10 8 10 19 0 14
6 18 25 16 14 -2 23 1 19 6 -3 5 -10 6 -16 3 -7 -4 -8 -2 -4 5 4 6 12 8 18 5
7 -5 9 -2 6 8 -6 15 17 18 39 5 6 -4 15 -2 19 4 4 8 3 9 -4 5 -7 -4 -12 -2
-12 3 0 10 28 16 58 12 6 -1 12 2 12 8 0 5 -11 8 -25 7 -13 -2 -22 0 -20 5 3
4 23 6 45 4 23 -2 38 1 34 6 -3 5 -9 7 -13 5 -4 -3 -8 1 -8 9 0 8 4 12 8 9 4
-2 12 3 17 12 8 15 10 15 15 0 4 -10 3 -15 -3 -11 -6 3 -10 2 -10 -3 0 -6 6
-12 14 -15 10 -4 13 3 11 23 -1 16 0 29 4 28 14 -1 51 15 51 23 0 5 7 5 17 2
10 -4 14 -2 9 5 -3 6 -1 14 5 18 7 4 9 3 6 -3 -11 -17 16 -34 33 -21 12 8 12
9 -2 4 -19 -6 -22 2 -12 28 3 9 10 13 15 10 5 -3 9 0 9 6 0 6 5 8 10 5 6 -3
10 -11 10 -16 0 -6 -4 -8 -8 -5 -4 2 -14 0 -22 -6 -13 -8 -12 -9 1 -5 9 3 22
0 29 -6 7 -7 10 -7 7 -2 -3 6 -2 17 4 25 6 10 9 11 9 3 0 -7 6 -13 13 -13 6 1
1 10 -13 22 -18 15 -20 19 -6 15 14 -6 17 -3 12 8 -3 9 -2 14 3 11 5 -3 21 4
35 15 15 12 30 19 33 15 4 -3 1 -6 -6 -6 -7 0 -11 -7 -8 -14 4 -10 1 -13 -9
-9 -7 3 -14 0 -14 -7 0 -6 -4 -8 -10 -5 -5 3 -10 -1 -10 -9 0 -8 6 -18 13 -22
6 -4 9 -4 5 1 -14 15 13 34 40 29 26 -5 26 -5 7 11 -19 15 -19 15 8 11 15 -3
25 -1 22 4 -6 10 12 23 38 27 12 2 16 -1 11 -9 -4 -7 -3 -8 4 -4 6 4 9 13 5
22 -4 10 -9 12 -18 4 -9 -8 -14 -6 -18 4 -4 11 -1 13 10 9 11 -4 14 -2 9 5 -5
8 -1 10 10 5 11 -4 15 -2 11 4 -4 6 1 10 11 9 9 0 16 4 15 11 -3 13 22 7 45
-10 8 -6 12 -6 12 0 0 6 -10 15 -22 21 -17 8 -19 11 -6 11 9 1 18 4 21 9 2 4
3 2 1 -5 -1 -6 6 -13 17 -16 16 -4 17 -2 8 14 -7 13 -6 19 1 19 6 0 9 4 5 9
-3 6 4 8 16 6 16 -3 19 -1 14 13 -5 14 -4 15 6 5 18 -18 29 -16 22 5 -5 14 -3
14 10 -3 12 -15 18 -17 29 -7 8 6 18 8 22 4 4 -4 6 0 4 8 -2 11 4 14 22 13 21
-2 23 -1 8 8 -22 12 -23 29 -2 29 8 0 13 -4 10 -9 -4 -5 3 -7 14 -4 11 3 21 9
21 14 1 5 2 13 3 19 3 23 24 32 47 19 l24 -12 -20 23 c-11 13 -15 20 -8 17 6
-4 14 -3 18 3 4 6 10 8 15 5 5 -3 16 5 24 17 10 13 16 17 16 9 0 -8 3 -11 7
-8 3 4 12 2 19 -4 9 -8 15 -4 24 13 10 21 10 22 -4 4 -14 -18 -15 -18 -13 2 1
19 19 24 33 9 4 -4 12 -7 18 -7 6 0 5 4 -3 9 -12 8 -12 12 -2 25 12 14 46 11
36 -3 -2 -4 2 -8 10 -8 9 0 11 5 7 11 -11 15 -9 36 3 35 6 0 9 -7 7 -16 -3
-13 -1 -13 11 -2 8 8 12 19 10 26 -3 7 7 15 21 19 14 3 26 11 26 17 0 6 3 7 6
4 4 -4 1 -13 -5 -21 -9 -11 -9 -16 0 -22 8 -5 9 -3 4 6 -6 10 -3 12 13 8 19
-5 20 -3 11 13 -14 27 5 24 25 -4 10 -14 14 -16 10 -5 -4 11 0 20 11 24 9 4
14 12 11 19 -2 6 0 18 5 26 8 12 12 11 24 -5 14 -18 15 -18 15 -2 0 9 4 15 9
12 5 -3 12 1 15 9 4 12 2 13 -12 6 -12 -6 -23 -6 -33 1 -11 8 -11 9 4 4 9 -3
17 0 17 6 0 6 3 8 7 5 3 -4 17 0 30 8 16 11 23 12 23 4 0 -7 3 -9 7 -6 3 4 -2
17 -13 29 l-19 22 30 -18 30 -19 -19 21 c-20 23 -9 31 12 10 9 -9 11 -6 7 10
-2 13 3 26 13 32 11 6 12 10 4 10 -7 0 -10 5 -6 12 4 6 3 8 -4 4 -6 -3 -14 -1
-18 5 -4 8 -3 9 4 5 16 -10 15 17 0 33 -11 10 -10 11 4 6 9 -4 19 -14 21 -23
3 -12 5 -10 6 6 0 12 -6 25 -14 28 -18 7 -4 39 29 67 21 17 21 17 -6 6 -16 -7
-28 -17 -28 -22 0 -6 -3 -7 -7 -4 -3 4 2 16 13 28 10 11 14 19 9 17 -6 -2 -11
2 -12 7 -2 6 8 9 22 9 13 -1 22 3 19 8 -3 4 -9 6 -14 3 -15 -9 -39 6 -33 21 3
8 9 14 14 14 4 0 5 -8 2 -17 -6 -17 -6 -17 10 -1 18 18 23 33 8 23 -5 -3 -12
-1 -16 5 -4 6 -11 8 -16 5 -5 -4 -9 -1 -9 5 0 7 6 10 13 7 6 -2 18 2 26 10 12
13 11 14 -9 8 -14 -5 -20 -3 -16 3 3 6 3 12 -1 15 -5 2 -2 2 5 1 6 -2 12 1 12
7 0 6 4 8 8 5 4 -2 9 5 9 16 2 20 1 20 -12 2 -12 -16 -16 -17 -27 -5 -7 8 -8
11 -2 8 7 -4 15 0 18 9 5 12 1 14 -17 9 -14 -4 -18 -3 -9 3 7 5 12 13 11 18
-1 5 0 11 1 14 8 20 6 40 -3 40 -5 0 -8 3 -5 6 4 3 15 1 25 -5 15 -7 20 -7 20
4 0 8 -3 14 -6 13 -20 -2 -31 3 -26 12 4 6 11 7 17 4 7 -5 8 -2 4 5 -5 7 -14
10 -20 8 -13 -5 -15 20 -3 39 3 6 3 14 0 18 -10 9 -11 66 -1 60 4 -3 8 -1 8 5
0 5 -4 12 -8 15 -10 6 -9 57 2 75 5 8 3 17 -5 23 -10 6 -6 7 11 3 l25 -7 -23
22 c-18 17 -21 25 -11 36 10 12 8 18 -7 30 -18 14 -18 14 4 4 13 -7 26 -9 29
-6 3 3 -2 8 -11 12 -18 7 -22 34 -5 34 5 0 7 -5 3 -12 -4 -7 -3 -8 5 -4 9 6 9
11 0 22 -6 7 -15 12 -18 9 -4 -2 -8 2 -8 10 0 13 4 13 24 0 13 -9 23 -11 23
-5 0 5 -5 10 -11 10 -6 0 -8 10 -5 23 3 12 3 16 0 10 -8 -18 -27 -16 -21 2 4
8 2 17 -3 20 -5 3 -6 13 -3 21 4 12 8 13 14 3 4 -7 5 -17 3 -21 -3 -4 2 -5 10
-2 9 3 16 10 16 16 0 5 -4 7 -9 4 -5 -3 -12 6 -15 20 -7 26 0 48 13 40 4 -3 8
1 8 9 0 8 -4 12 -9 9 -4 -3 -8 0 -8 5 0 6 5 11 12 11 6 0 8 3 5 6 -4 4 -14 1
-24 -7 -15 -12 -16 -12 -10 5 4 10 2 26 -5 35 -7 9 -9 13 -4 9 4 -3 16 2 27
13 11 11 25 17 31 13 7 -4 8 -3 4 4 -4 6 -13 9 -21 5 -17 -6 -20 7 -5 25 7 9
7 9 -2 2 -13 -11 -35 -14 -25 -3 4 3 3 11 -3 17 -5 7 -5 17 0 26 9 13 10 13
11 0 1 -8 1 -18 0 -22 0 -4 6 -5 15 -1 9 3 11 9 6 12 -14 9 -24 49 -16 63 5 7
9 21 9 30 1 15 -1 15 -14 5 -12 -10 -14 -9 -8 7 4 10 2 25 -5 34 -7 9 -8 13
-3 10 6 -3 19 6 30 21 14 19 15 22 3 13 -13 -11 -21 -11 -35 -2 -12 8 -13 10
-3 7 9 -3 25 2 35 10 19 14 19 15 -5 8 -23 -7 -24 -7 -10 10 8 11 10 16 3 12
-6 -4 -15 -2 -19 4 -4 8 -3 9 4 5 7 -4 12 -2 12 5 0 8 4 9 13 0 10 -8 14 -7
14 4 0 8 -4 12 -8 9 -4 -2 -7 5 -6 16 1 11 6 20 11 20 5 0 7 2 4 5 -3 3 -13 2
-22 -1 -12 -5 -14 -9 -6 -14 8 -5 7 -10 -3 -18 -11 -9 -13 -8 -12 8 1 11 7 26
13 32 19 19 14 32 -5 17 -10 -7 -15 -9 -11 -5 4 5 2 16 -5 25 -11 14 -10 14 6
2 20 -15 22 -9 6 21 -8 16 -8 19 1 13 9 -5 10 -2 6 13 -4 11 -2 23 4 27 6 3 8
10 5 15 -3 5 3 13 12 19 10 6 14 10 8 11 -20 0 -37 -18 -30 -31 6 -11 5 -12
-5 -2 -11 10 -11 16 3 31 22 24 22 38 0 21 -9 -8 -14 -9 -10 -2 4 6 4 13 0 16
-5 2 -2 2 5 1 6 -2 12 1 12 6 0 6 -5 10 -12 10 -6 0 -4 6 7 13 17 13 17 15 -6
30 -15 11 -18 17 -9 17 9 0 20 8 27 18 9 15 8 19 -3 19 -7 0 -11 -4 -8 -8 9
-16 -17 -20 -36 -6 -18 12 -18 15 -5 20 24 10 19 40 -5 32 -12 -4 -20 -2 -20
5 0 6 -6 8 -12 4 -7 -4 -2 6 12 22 14 15 18 23 8 16 -11 -9 -18 -10 -23 -2 -4
6 -12 7 -18 2 -22 -16 -63 1 -51 20 5 8 1 9 -10 5 -10 -4 -19 -1 -23 8 -3 10
-13 14 -27 10 -18 -5 -19 -4 -4 5 10 6 15 17 11 27 -5 12 -3 14 8 8 8 -4 11
-4 6 0 -10 12 -47 14 -40 2 3 -5 -4 -6 -17 -2 -17 6 -21 4 -15 -6 5 -8 -1 -6
-12 4 -11 9 -23 14 -28 10 -4 -5 -5 -3 -2 4 4 6 18 10 31 9 24 -3 30 14 11 31
-4 4 -5 2 -1 -4 7 -12 -5 -18 -28 -14 -4 1 -15 -4 -23 -10 -11 -10 -14 -10
-11 2 2 9 -4 13 -17 11 -16 -2 -17 -1 -5 7 8 5 18 7 22 5 15 -9 8 3 -9 17 -11
10 -14 10 -9 2 4 -8 1 -13 -9 -13 -9 0 -13 5 -10 10 3 6 -1 10 -10 10 -10 0
-13 -5 -9 -12 4 -7 3 -8 -5 -4 -9 6 -9 11 1 24 12 13 10 14 -9 4 -14 -8 -24
-9 -28 -2 -4 6 -11 7 -17 4 -6 -4 -8 -2 -4 4 3 6 1 14 -5 18 -6 3 -15 1 -19
-6 -5 -8 -10 -8 -14 -2 -9 15 24 24 40 11 12 -10 13 -8 8 5 -5 14 -15 16 -48
12 -27 -4 -36 -3 -26 3 8 6 17 8 21 5 4 -2 11 0 14 6 4 6 1 9 -7 8 -7 -2 -12
3 -10 11 2 11 0 12 -11 3 -21 -18 -66 -11 -73 11 -3 10 -12 16 -20 13 -7 -3
-16 -1 -19 5 -4 5 -12 6 -18 2 -7 -4 -5 1 3 11 17 22 22 46 8 46 -6 0 -8 -6
-5 -14 3 -8 -2 -17 -11 -21 -20 -8 -23 -7 -19 3 1 4 5 6 8 5 3 -1 6 5 6 13 0
12 -4 12 -24 -2 -23 -15 -24 -15 -14 5 15 27 14 34 -5 27 -18 -7 -47 11 -39
24 3 5 0 12 -6 16 -8 4 -9 3 -5 -4 4 -7 3 -12 -3 -12 -5 0 -12 8 -14 18 -4 16
-5 16 -6 -1 -1 -13 -8 -17 -26 -14 -14 2 -25 6 -25 10 0 4 0 10 0 13 0 4 6 1
14 -5 10 -8 16 -9 21 -1 4 6 1 9 -7 8 -7 -2 -12 2 -11 9 2 9 -4 10 -24 2 -19
-7 -28 -6 -34 2 -4 7 -13 8 -20 4 -8 -5 -11 -5 -7 0 4 4 0 14 -8 22 -8 8 -11
19 -8 25 4 7 2 8 -5 4 -6 -4 -14 0 -17 8 -3 9 -10 16 -16 16 -5 0 -6 -4 -3
-10 3 -5 -1 -10 -10 -10 -9 0 -13 5 -10 10 3 6 -1 10 -9 10 -9 0 -16 5 -16 11
0 5 6 7 13 3 6 -4 8 -3 4 1 -14 16 -36 14 -30 -3 4 -13 3 -14 -5 -4 -5 8 -12
13 -16 13 -19 -3 -26 0 -26 10 0 8 5 8 15 -1 8 -7 15 -9 15 -5 0 8 -50 49 -62
51 -5 1 -11 2 -14 3 -4 0 0 9 7 19 13 15 12 16 -3 4 -12 -10 -22 -11 -37 -3
-15 8 -22 8 -27 -1 -4 -7 -4 -10 1 -6 4 4 22 0 39 -9 17 -10 35 -16 39 -15 5
1 5 -3 1 -9 -5 -8 -3 -9 7 -4 8 5 10 4 6 0 -12 -14 -37 -15 -34 -2 1 7 -8 11
-23 9 -19 -2 -22 0 -10 8 10 7 11 10 3 11 -7 1 -18 2 -24 3 -6 0 -17 10 -25
20 -8 11 -14 16 -14 10 0 -5 -10 2 -21 16 -15 17 -19 19 -15 7 3 -11 2 -16 -4
-12 -19 12 -11 38 9 32 14 -3 18 -1 14 9 -4 11 -9 11 -26 2 -12 -6 -33 -13
-47 -14 -14 -1 -19 0 -12 3 6 3 9 9 6 15 -4 5 4 4 17 -2 l24 -13 -20 20 c-14
15 -24 18 -33 10 -7 -5 -15 -7 -19 -3 -4 3 2 13 13 22 10 8 13 13 7 9 -7 -3
-13 0 -13 7 -1 7 -7 0 -15 -17 -11 -21 -13 -23 -9 -7 5 21 4 22 -13 13 -15 -8
-20 -7 -20 4 0 8 3 12 7 10 3 -2 12 1 20 7 13 8 12 9 -2 5 -9 -3 -19 -3 -22 1
-11 10 -37 11 -30 1 3 -5 10 -7 15 -4 5 3 6 -1 3 -10 -6 -14 -8 -13 -20 4 -8
11 -11 28 -8 38 3 11 0 8 -9 -6 -12 -20 -15 -21 -20 -7 -4 10 -12 14 -18 10
-8 -4 -9 1 -4 17 l8 24 -22 -25 c-12 -15 -20 -19 -19 -10 2 9 -3 14 -14 12
-20 -3 -33 14 -17 24 8 4 9 3 5 -4 -4 -7 -3 -12 2 -12 6 0 13 8 16 17 4 10 4
14 0 10 -4 -4 -17 1 -28 10 -17 15 -18 15 -8 2 10 -14 10 -18 -4 -23 -21 -8
-24 -8 -24 5 0 5 6 7 13 3 6 -4 3 2 -7 14 -20 23 -32 30 -21 12 3 -5 -1 -10
-9 -10 -8 0 -18 5 -21 10 -8 13 -25 3 -25 -13 0 -7 4 -6 11 3 9 12 10 12 5 -3
-3 -10 -6 -21 -6 -23 0 -2 -5 -4 -11 -4 -5 0 -8 4 -4 9 3 5 1 12 -5 16 -6 4
-8 11 -5 16 10 15 -2 10 -16 -8z m94 -18 c-3 -9 -8 -14 -10 -11 -3 3 -2 9 2
15 9 16 15 13 8 -4z m-458 -185 c-3 -5 -11 -10 -16 -10 -6 0 -7 5 -4 10 3 6
11 10 16 10 6 0 7 -4 4 -10z m1104 -164 c9 -11 9 -16 0 -22 -8 -4 -9 -3 -5 4
4 7 2 12 -3 12 -6 0 -11 5 -11 10 0 14 5 13 19 -4z m171 -102 c0 5 9 1 19 -8
11 -10 25 -15 32 -10 8 4 10 3 5 -4 -10 -16 -22 -15 -40 3 -8 9 -18 16 -21 15
-21 -1 -25 1 -19 11 4 8 9 7 15 -2 5 -8 9 -10 9 -5z m-1770 -24 c0 -5 -2 -10
-4 -10 -3 0 -8 5 -11 10 -3 6 -1 10 4 10 6 0 11 -4 11 -10z m-234 -142 c4 -7
4 -10 -1 -6 -4 4 -14 0 -22 -10 -13 -15 -13 -15 -3 6 12 25 16 27 26 10z
m2529 -128 c3 -5 1 -10 -4 -10 -6 0 -11 5 -11 10 0 6 2 10 4 10 3 0 8 -4 11
-10z m215 -226 c0 -2 -7 -4 -15 -4 -8 0 -15 4 -15 10 0 5 7 7 15 4 8 -4 15 -8
15 -10z m-3375 -44 c-3 -5 -12 -10 -18 -10 -7 0 -6 4 3 10 19 12 23 12 15 0z
m-89 -9 c-4 -5 -3 -11 1 -14 5 -2 2 -2 -6 0 -7 2 -20 -2 -27 -8 -8 -6 -14 -7
-14 -2 0 6 10 15 23 21 28 14 29 14 23 3z m-59 -28 c0 -9 -4 -10 -14 -2 -7 6
-13 12 -13 14 0 1 6 2 13 2 8 0 14 -6 14 -14z m-170 -55 c-3 -8 -6 -5 -6 6 -1
11 2 17 5 13 3 -3 4 -12 1 -19z m-573 -173 c-4 -8 -11 -15 -16 -15 -6 0 -5 6
2 15 7 8 14 15 16 15 2 0 1 -7 -2 -15z m4273 -151 c-3 -3 -12 -4 -19 -1 -8 3
-5 6 6 6 11 1 17 -2 13 -5z m-1 -142 c-4 -3 -14 2 -24 12 -16 18 -16 18 6 6
13 -6 21 -14 18 -18z m1 -98 c-3 -3 -12 -4 -19 -1 -8 3 -5 6 6 6 11 1 17 -2
13 -5z m-4703 -312 c2 -4 -4 -8 -15 -8 -10 0 -19 4 -19 8 0 4 6 8 14 8 8 0 17
-4 20 -8z m0 -384 c-3 -4 -9 -8 -15 -8 -5 0 -9 4 -9 8 0 5 7 9 15 9 8 0 12 -4
9 -9z m4686 -313 c0 -12 -19 -12 -23 0 -4 9 -1 12 9 8 7 -3 14 -7 14 -8z
m-4691 -59 c9 -10 8 -15 -2 -19 -8 -3 -13 3 -13 14 0 23 0 23 15 5z m4522
-106 c6 0 7 5 3 12 -4 7 -3 8 5 4 9 -6 9 -11 0 -22 -10 -12 -14 -12 -20 -2 -5
7 -8 18 -8 23 0 6 3 4 6 -2 2 -7 9 -13 14 -13z m-4516 -38 c-3 -3 -11 0 -18 7
-9 10 -8 11 6 5 10 -3 15 -9 12 -12z m-10 -22 c3 -5 2 -10 -4 -10 -5 0 -13 5
-16 10 -3 6 -2 10 4 10 5 0 13 -4 16 -10z m11 -107 c-7 -7 -21 -4 -21 5 0 4
-4 14 -9 22 -6 9 -1 7 12 -4 12 -11 20 -21 18 -23z m4119 -52 c3 -5 1 -12 -5
-16 -5 -3 -10 1 -10 9 0 18 6 21 15 7z m-4115 -41 c0 -5 -2 -10 -4 -10 -3 0
-8 5 -11 10 -3 6 -1 10 4 10 6 0 11 -4 11 -10z m4035 -20 c-17 -19 -35 -19
-35 1 0 6 4 8 8 5 4 -2 14 -1 22 5 23 14 25 11 5 -11z m-1801 -52 c5 0 13 6
17 14 5 7 9 9 9 3 0 -5 -5 -17 -10 -25 -6 -10 -10 -11 -10 -2 0 6 -5 11 -12
10 -6 -2 -13 6 -15 17 -3 18 -2 18 5 2 4 -10 12 -19 16 -19z m-2058 -7 c12 9
18 9 27 0 9 -10 8 -11 -4 -6 -10 4 -20 1 -24 -4 -8 -14 -25 -5 -24 12 0 8 2 8
6 -1 4 -10 8 -10 19 -1z m3588 -80 c3 -4 -4 -17 -15 -27 -18 -16 -19 -16 -13
-1 3 9 10 17 16 17 5 0 6 5 3 10 -3 6 -4 10 -1 10 3 0 7 -4 10 -9z m-1137
-136 c0 -8 -4 -12 -9 -9 -5 3 -6 10 -3 15 9 13 12 11 12 -6z m597 -195 c-6 -6
-10 -3 -10 10 0 13 4 16 10 10 7 -7 7 -13 0 -20z m-111 -25 c-3 -9 -8 -14 -10
-11 -3 3 -2 9 2 15 9 16 15 13 8 -4z"/>
<path d="M3169 4328 c-8 -27 -6 -38 5 -29 7 6 17 7 22 3 4 -4 2 1 -5 11 -12
16 -20 21 -22 15z"/>
<path d="M3387 4295 c-4 -8 -3 -16 1 -19 4 -3 9 4 9 15 2 23 -3 25 -10 4z"/>
<path d="M3084 4278 c-4 -7 -4 -10 1 -6 4 4 14 3 22 -4 11 -8 12 -7 7 6 -7 19
-20 21 -30 4z"/>
<path d="M3033 4265 c0 -8 4 -15 9 -15 4 0 8 4 8 9 0 6 -4 12 -8 15 -5 3 -9
-1 -9 -9z"/>
<path d="M3435 4260 c3 -5 8 -10 11 -10 2 0 4 5 4 10 0 6 -5 10 -11 10 -5 0
-7 -4 -4 -10z"/>
<path d="M3490 4260 c-9 -6 -10 -10 -3 -10 6 0 15 5 18 10 8 12 4 12 -15 0z"/>
<path d="M2940 4200 c6 -11 13 -20 16 -20 2 0 0 9 -6 20 -6 11 -13 20 -16 20
-2 0 0 -9 6 -20z"/>
<path d="M3616 4178 c3 -5 10 -6 15 -3 13 9 11 12 -6 12 -8 0 -12 -4 -9 -9z"/>
<path d="M2874 4173 c3 -6 2 -14 -4 -18 -5 -3 -10 -11 -10 -16 0 -6 7 -3 16 6
14 13 14 19 4 28 -10 9 -11 9 -6 0z"/>
<path d="M3710 4140 c0 -5 5 -10 11 -10 5 0 7 5 4 10 -3 6 -8 10 -11 10 -2 0
-4 -4 -4 -10z"/>
<path d="M3690 4125 c0 -5 5 -17 10 -25 5 -8 10 -10 10 -5 0 6 -5 17 -10 25
-5 8 -10 11 -10 5z"/>
<path d="M3810 4079 c0 -5 5 -7 10 -4 6 3 10 8 10 11 0 2 -4 4 -10 4 -5 0 -10
-5 -10 -11z"/>
<path d="M2720 4059 c0 -5 5 -7 10 -4 6 3 10 8 10 11 0 2 -4 4 -10 4 -5 0 -10
-5 -10 -11z"/>
<path d="M3835 4061 c-3 -5 -2 -12 3 -15 5 -3 9 1 9 9 0 17 -3 19 -12 6z"/>
<path d="M2670 4041 c0 -5 -13 -14 -30 -21 -16 -7 -30 -17 -30 -22 0 -5 -5 -6
-10 -3 -6 3 -13 -1 -16 -10 -6 -14 -8 -14 -21 2 -13 17 -13 16 -4 -3 6 -12 7
-25 3 -30 -4 -5 0 -3 9 4 9 6 19 9 23 5 4 -4 4 1 0 12 -4 11 -4 17 0 13 4 -3
24 5 43 18 20 13 40 24 44 24 5 0 9 5 9 10 0 6 -4 10 -10 10 -5 0 -10 -4 -10
-9z"/>
<path d="M2541 3964 c0 -11 3 -14 6 -6 3 7 2 16 -1 19 -3 4 -6 -2 -5 -13z"/>
<path d="M3981 3959 c0 -9 10 -24 24 -33 25 -16 25 -16 13 3 -6 11 -15 18 -19
15 -4 -2 -10 4 -12 13 -4 15 -5 15 -6 2z"/>
<path d="M4026 3939 c4 -8 30 -6 38 2 3 3 -5 5 -19 5 -13 0 -22 -3 -19 -7z"/>
<path d="M2385 3899 c-3 -4 2 -6 10 -5 21 3 28 13 10 13 -9 0 -18 -4 -20 -8z"/>
<path d="M4140 3906 c0 -2 8 -10 18 -17 15 -13 16 -12 3 4 -13 16 -21 21 -21
13z"/>
<path d="M2245 3800 c-3 -5 -5 -10 -3 -11 33 -8 38 -7 27 7 -14 17 -16 17 -24
4z"/>
<path d="M4260 3790 c-8 -5 -12 -12 -9 -15 4 -3 12 1 19 10 14 17 11 19 -10 5z"/>
<path d="M2174 3772 c3 -5 0 -13 -6 -15 -9 -4 -10 -6 -1 -6 17 -1 25 16 12 25
-7 4 -9 3 -5 -4z"/>
<path d="M4290 3766 c0 -19 28 -28 48 -16 14 8 13 9 -8 7 -16 -1 -24 3 -22 11
1 6 -2 12 -8 12 -5 0 -10 -6 -10 -14z"/>
<path d="M2050 3699 c0 -5 5 -7 10 -4 6 3 10 8 10 11 0 2 -4 4 -10 4 -5 0 -10
-5 -10 -11z"/>
<path d="M4437 3687 c-9 -23 8 -30 24 -10 8 9 9 14 2 10 -6 -4 -13 -2 -15 5
-3 8 -7 6 -11 -5z"/>
<path d="M1956 3662 c-3 -5 1 -9 9 -9 8 0 12 4 9 9 -3 4 -7 8 -9 8 -2 0 -6 -4
-9 -8z"/>
<path d="M4535 3661 c-3 -5 -2 -12 3 -15 5 -3 9 1 9 9 0 17 -3 19 -12 6z"/>
<path d="M1919 3633 c-12 -16 -12 -17 2 -6 9 7 20 9 24 5 5 -4 5 -1 1 6 -9 16
-11 15 -27 -5z"/>
<path d="M4545 3620 c-3 -6 1 -7 9 -4 18 7 21 14 7 14 -6 0 -13 -4 -16 -10z"/>
<path d="M1876 3591 c-3 -5 1 -11 9 -14 9 -4 12 -1 8 9 -6 16 -10 17 -17 5z"/>
<path d="M4715 3569 c-4 -6 -5 -12 -2 -15 2 -3 7 2 10 11 7 17 1 20 -8 4z"/>
<path d="M4676 3537 c3 -10 9 -15 12 -12 3 3 0 11 -7 18 -10 9 -11 8 -5 -6z"/>
<path d="M4708 3533 c7 -3 16 -2 19 1 4 3 -2 6 -13 5 -11 0 -14 -3 -6 -6z"/>
<path d="M4727 3516 c-12 -9 -14 -16 -8 -21 6 -3 11 0 11 7 0 9 3 9 10 -2 7
-12 9 -10 7 8 0 12 -1 22 -2 22 0 0 -8 -7 -18 -14z"/>
<path d="M1626 3418 c3 -5 10 -6 15 -3 13 9 11 12 -6 12 -8 0 -12 -4 -9 -9z"/>
<path d="M1633 3398 c-13 -6 -23 -16 -23 -22 0 -6 -4 -5 -9 3 -6 9 -8 6 -8
-12 0 -25 0 -26 16 -7 9 11 25 26 36 35 23 17 19 18 -12 3z"/>
<path d="M4825 3400 c3 -5 8 -10 11 -10 2 0 4 5 4 10 0 6 -5 10 -11 10 -5 0
-7 -4 -4 -10z"/>
<path d="M4870 3360 c0 -5 5 -10 11 -10 5 0 7 5 4 10 -3 6 -8 10 -11 10 -2 0
-4 -4 -4 -10z"/>
<path d="M4874 3319 c-3 -6 -2 -15 4 -21 6 -6 12 -6 17 3 6 8 4 10 -5 4 -10
-6 -12 -4 -7 8 7 19 2 23 -9 6z"/>
<path d="M1420 3310 c-11 -7 -12 -12 -4 -20 8 -8 14 -7 23 4 14 17 1 28 -19
16z"/>
<path d="M1330 3300 c0 -5 5 -10 11 -10 5 0 7 5 4 10 -3 6 -8 10 -11 10 -2 0
-4 -4 -4 -10z"/>
<path d="M1111 3253 c7 -12 15 -20 18 -17 3 2 -3 12 -13 22 -17 16 -18 16 -5
-5z"/>
<path d="M4865 3201 c-3 -5 -2 -12 3 -15 5 -3 9 1 9 9 0 17 -3 19 -12 6z"/>
<path d="M4860 3164 c0 -20 27 -37 36 -23 4 7 3 9 -4 5 -6 -3 -15 2 -21 11 -6
10 -11 13 -11 7z"/>
<path d="M775 3140 c3 -5 8 -10 11 -10 2 0 4 5 4 10 0 6 -5 10 -11 10 -5 0 -7
-4 -4 -10z"/>
<path d="M758 3107 c7 -8 8 -18 4 -22 -4 -5 -1 -5 6 -1 17 10 15 23 -4 30 -13
5 -14 4 -6 -7z"/>
<path d="M666 3082 c-4 -7 -2 -12 4 -12 6 0 8 -5 4 -12 -6 -10 -5 -10 8 -1 8
7 18 10 22 6 4 -4 4 1 0 11 -5 12 -9 14 -14 6 -6 -9 -9 -9 -12 1 -3 10 -6 10
-12 1z"/>
<path d="M441 3008 c-1 -21 15 -32 25 -17 4 7 3 9 -4 5 -6 -3 -13 2 -15 11 -4
16 -5 16 -6 1z"/>
<path d="M356 3002 c-3 -5 1 -9 9 -9 8 0 12 4 9 9 -3 4 -7 8 -9 8 -2 0 -6 -4
-9 -8z"/>
<path d="M294 2982 c3 -6 -2 -15 -11 -21 -10 -6 -13 -11 -7 -11 20 0 37 27 23
36 -7 4 -9 3 -5 -4z"/>
<path d="M395 2980 c3 -5 8 -10 11 -10 2 0 4 5 4 10 0 6 -5 10 -11 10 -5 0 -7
-4 -4 -10z"/>
<path d="M341 2964 c0 -11 3 -14 6 -6 3 7 2 16 -1 19 -3 4 -6 -2 -5 -13z"/>
<path d="M215 2940 c-3 -5 -1 -10 4 -10 6 0 11 5 11 10 0 6 -2 10 -4 10 -3 0
-8 -4 -11 -10z"/>
<path d="M4866 2941 c-4 -5 3 -7 14 -4 23 6 26 13 6 13 -8 0 -17 -4 -20 -9z"/>
<path d="M4896 2913 c-6 -14 -5 -15 5 -6 7 7 10 15 7 18 -3 3 -9 -2 -12 -12z"/>
<path d="M4886 2818 c3 -5 10 -6 15 -3 13 9 11 12 -6 12 -8 0 -12 -4 -9 -9z"/>
<path d="M4869 2703 c-13 -16 -12 -17 4 -4 9 7 17 15 17 17 0 8 -8 3 -21 -13z"/>
<path d="M4870 2606 c0 -2 7 -7 16 -10 8 -3 12 -2 9 4 -6 10 -25 14 -25 6z"/>
<path d="M130 2571 c-8 -6 -18 -7 -24 -4 -5 3 -6 1 -2 -5 5 -9 13 -9 27 -2 10
6 19 13 19 15 0 7 -3 6 -20 -4z"/>
<path d="M107 2459 c7 -7 15 -10 18 -7 3 3 -2 9 -12 12 -14 6 -15 5 -6 -5z"/>
<path d="M4870 2392 c-20 -16 -21 -20 -7 -25 9 -3 19 -1 23 5 4 7 3 8 -4 4
-19 -11 -14 5 6 20 9 7 14 14 11 14 -4 0 -17 -8 -29 -18z"/>
<path d="M113 2355 c0 -8 4 -12 9 -9 5 3 6 10 3 15 -9 13 -12 11 -12 -6z"/>
<path d="M4860 2305 c-9 -10 -9 -15 -1 -15 6 0 11 -5 11 -11 0 -5 -4 -8 -8 -5
-5 3 -8 -5 -7 -16 1 -12 12 -28 26 -36 23 -13 23 -13 5 2 -15 12 -16 16 -5 16
8 0 10 3 4 8 -6 4 -11 20 -12 35 -1 22 2 25 12 17 10 -8 15 -7 21 2 4 7 4 10
-1 6 -4 -4 -14 -3 -20 2 -9 7 -16 6 -25 -5z"/>
<path d="M130 2209 c0 -5 5 -7 10 -4 6 3 10 8 10 11 0 2 -4 4 -10 4 -5 0 -10
-5 -10 -11z"/>
<path d="M4859 2209 c0 -2 -2 -14 -3 -27 -3 -25 18 -49 28 -33 4 5 2 12 -4 16
-17 10 -11 25 8 18 18 -7 17 -5 -10 16 -10 7 -18 12 -19 10z"/>
<path d="M4850 2126 c0 -2 12 -12 28 -22 19 -13 24 -13 15 -2 -7 8 -11 17 -8
19 2 3 -5 5 -15 6 -11 1 -20 0 -20 -1z"/>
<path d="M120 2086 c7 -7 13 -7 20 0 6 6 3 10 -10 10 -13 0 -16 -4 -10 -10z"/>
<path d="M117 2063 c-4 -6 -2 -13 4 -15 9 -3 9 -10 0 -26 -7 -14 -9 -28 -3
-38 8 -15 10 -15 15 0 4 10 3 15 -3 11 -14 -9 -12 1 6 37 9 16 11 27 6 24 -6
-3 -12 -1 -14 6 -3 9 -6 9 -11 1z"/>
<path d="M4860 2036 c0 -3 9 -10 20 -16 11 -6 20 -8 20 -6 0 3 -9 10 -20 16
-11 6 -20 8 -20 6z"/>
<path d="M4850 2005 c0 -2 10 -10 23 -16 20 -11 21 -11 8 4 -13 16 -31 23 -31
12z"/>
<path d="M95 1900 c-2 -3 7 -6 21 -6 13 0 24 3 24 7 0 9 -40 8 -45 -1z"/>
<path d="M110 1786 c0 -2 7 -6 15 -10 8 -3 15 -1 15 4 0 6 -7 10 -15 10 -8 0
-15 -2 -15 -4z"/>
<path d="M4867 1736 c-6 -16 1 -26 17 -26 6 0 4 5 -4 10 -10 6 -11 10 -2 10 6
0 12 5 12 10 0 15 -17 12 -23 -4z"/>
<path d="M110 1726 c0 -2 7 -9 15 -16 13 -11 14 -10 9 4 -5 14 -24 23 -24 12z"/>
<path d="M94 1698 c-4 -7 -4 -10 1 -6 4 4 15 2 24 -5 14 -11 14 -10 2 6 -16
20 -18 21 -27 5z"/>
<path d="M117 1609 c7 -7 15 -10 18 -7 3 3 -2 9 -12 12 -14 6 -15 5 -6 -5z"/>
<path d="M1727 1481 c-10 -14 -10 -14 4 -4 9 7 18 10 21 7 3 -3 8 -1 12 4 9
16 -24 9 -37 -7z"/>
<path d="M1776 1447 c3 -10 9 -15 12 -12 3 3 0 11 -7 18 -10 9 -11 8 -5 -6z"/>
<path d="M1838 1433 c7 -3 16 -2 19 1 4 3 -2 6 -13 5 -11 0 -14 -3 -6 -6z"/>
<path d="M1435 1411 c-3 -5 -2 -12 3 -15 5 -3 9 1 9 9 0 17 -3 19 -12 6z"/>
<path d="M1860 1411 c0 -6 4 -13 10 -16 6 -3 7 1 4 9 -7 18 -14 21 -14 7z"/>
<path d="M4586 1411 c-4 -5 -2 -12 4 -16 6 -4 8 -10 5 -15 -3 -5 -1 -11 4 -15
6 -3 8 6 5 22 -6 33 -10 38 -18 24z"/>
<path d="M1285 1380 c3 -4 -1 -11 -7 -13 -9 -4 -10 -6 -1 -6 6 -1 14 3 18 9 3
5 13 6 23 3 9 -3 14 -3 11 1 -9 10 -50 16 -44 6z"/>
<path d="M1190 1355 c-9 -11 -16 -12 -25 -5 -9 7 -12 4 -11 -15 1 -13 6 -28
10 -32 5 -4 6 -3 3 3 -8 14 17 37 28 26 5 -4 5 -1 1 6 -11 18 5 15 21 -5 12
-16 13 -15 2 7 -16 33 -14 33 -29 15z"/>
<path d="M4495 1360 c-3 -5 -1 -10 4 -10 6 0 11 5 11 10 0 6 -2 10 -4 10 -3 0
-8 -4 -11 -10z"/>
<path d="M4473 1305 c0 -8 4 -12 9 -9 5 3 6 10 3 15 -9 13 -12 11 -12 -6z"/>
<path d="M4392 1297 c-10 -11 -9 -17 5 -28 17 -13 17 -13 3 5 -14 18 -13 19 2
13 10 -3 20 -1 24 5 4 6 3 8 -4 4 -5 -3 -12 -1 -14 5 -2 7 -8 6 -16 -4z"/>
<path d="M113 1268 c1 -15 6 -23 11 -18 4 4 4 16 -2 26 -9 16 -10 14 -9 -8z"/>
<path d="M1005 1280 c-3 -6 1 -7 9 -4 18 7 21 14 7 14 -6 0 -13 -4 -16 -10z"/>
<path d="M4356 1281 c-3 -5 1 -11 9 -14 9 -4 12 -1 8 9 -6 16 -10 17 -17 5z"/>
<path d="M893 1269 c-6 -6 -17 -11 -24 -13 -8 -1 -23 -7 -34 -13 -11 -5 -25
-8 -32 -6 -6 2 -14 0 -17 -5 -5 -9 10 -8 59 1 11 2 24 -1 28 -7 6 -7 7 -4 3 7
-3 11 0 17 9 17 7 0 17 5 20 11 10 15 1 21 -12 8z"/>
<path d="M144 1252 c3 -5 0 -13 -6 -15 -9 -4 -10 -6 -1 -6 17 -1 25 16 12 25
-7 4 -9 3 -5 -4z"/>
<path d="M4305 1250 c-4 -6 1 -7 12 -3 15 6 16 4 5 -9 -10 -13 -10 -18 -1 -24
7 -4 9 -3 5 4 -3 6 -2 13 4 17 11 7 4 25 -10 25 -5 0 -12 -4 -15 -10z"/>
<path d="M799 1193 c-13 -16 -12 -17 4 -4 9 7 17 15 17 17 0 8 -8 3 -21 -13z"/>
<path d="M630 1176 c0 -23 16 -27 17 -5 1 10 -2 19 -8 19 -5 0 -9 -6 -9 -14z"/>
<path d="M755 1180 c3 -5 8 -10 11 -10 2 0 4 5 4 10 0 6 -5 10 -11 10 -5 0 -7
-4 -4 -10z"/>
<path d="M2334 1155 c8 -7 12 -16 8 -20 -4 -5 -2 -5 5 -1 16 9 6 33 -14 33
-14 0 -14 -1 1 -12z"/>
<path d="M213 1137 c0 -7 9 -14 20 -14 11 -1 18 -1 16 0 -2 2 -11 8 -20 15
-12 9 -16 9 -16 -1z"/>
<path d="M502 1141 c-10 -6 -10 -10 2 -20 11 -9 16 -9 22 0 5 8 3 9 -6 4 -10
-6 -12 -4 -7 8 7 19 7 20 -11 8z"/>
<path d="M4103 1127 c-3 -5 -2 -11 1 -14 3 -4 6 -1 6 7 0 10 4 10 17 -1 9 -8
14 -9 10 -2 -4 6 -1 13 5 16 7 3 3 4 -10 4 -13 -1 -26 -5 -29 -10z"/>
<path d="M450 1120 c0 -5 9 -8 20 -7 21 1 18 10 -5 13 -8 1 -15 -2 -15 -6z"/>
<path d="M403 1113 c-7 -2 -13 -9 -13 -14 0 -6 4 -8 9 -5 5 4 11 0 14 -6 3 -7
4 -3 4 10 -1 12 -1 22 -2 21 0 0 -6 -3 -12 -6z"/>
<path d="M215 1100 c-3 -6 1 -7 9 -4 18 7 21 14 7 14 -6 0 -13 -4 -16 -10z"/>
<path d="M430 1100 c0 -5 5 -10 11 -10 5 0 7 5 4 10 -3 6 -8 10 -11 10 -2 0
-4 -4 -4 -10z"/>
<path d="M2442 1090 c9 -6 16 -16 14 -23 -1 -6 -1 -9 1 -6 2 4 12 5 22 2 10
-3 22 0 25 5 4 6 -2 8 -14 5 -14 -4 -20 -1 -18 7 2 7 -8 14 -22 16 -21 3 -22
2 -8 -6z"/>
<path d="M355 1080 c-3 -5 -2 -10 4 -10 5 0 13 5 16 10 3 6 2 10 -4 10 -5 0
-13 -4 -16 -10z"/>
<path d="M4006 1065 c-18 -13 -18 -14 2 -12 11 0 18 5 15 11 -4 5 1 7 11 3 10
-4 15 -3 11 3 -8 13 -16 12 -39 -5z"/>
<path d="M2558 1003 c7 -3 16 -2 19 1 4 3 -2 6 -13 5 -11 0 -14 -3 -6 -6z"/>
<path d="M3665 873 c-32 -17 -31 -20 1 -20 18 0 22 2 13 8 -8 5 -9 9 -4 10 23
2 47 8 52 13 10 10 -37 1 -62 -11z"/>
<path d="M2900 818 c0 -4 4 -8 9 -8 6 0 12 4 15 8 3 5 -1 9 -9 9 -8 0 -15 -4
-15 -9z"/>
<path d="M3590 796 c0 -2 8 -10 18 -17 15 -13 16 -12 3 4 -13 16 -21 21 -21
13z"/>
<path d="M3002 760 c7 -10 14 -18 15 -16 6 6 -9 36 -18 36 -5 0 -4 -9 3 -20z"/>
<path d="M3476 754 c-8 -20 -8 -24 2 -24 4 0 8 9 9 20 2 24 -3 26 -11 4z"/>
<path d="M3020 726 c0 -2 8 -10 18 -17 15 -13 16 -12 3 4 -13 16 -21 21 -21
13z"/>
<path d="M3156 702 c-4 -7 -12 -9 -18 -6 -7 4 -8 2 -4 -4 4 -6 14 -8 24 -5 15
6 15 5 3 -10 -12 -15 -12 -17 3 -11 9 3 16 10 16 16 0 5 5 6 12 2 7 -4 8 -3 4
5 -4 6 -11 9 -16 6 -4 -3 -10 0 -12 7 -3 9 -6 9 -12 0z"/>
<path d="M3340 660 c-12 -7 -10 -9 7 -7 12 0 19 5 17 9 -6 10 -6 10 -24 -2z"/>
<path d="M3241 641 c-10 -7 -7 -9 12 -8 14 1 23 5 20 10 -6 9 -15 9 -32 -2z"/>
</g>
</svg>
